<?xml version="1.0" encoding="UTF-8"?>
<svg version="1.1" xmlns="http://www.w3.org/2000/svg" width="296" height="89">
<path d="M0 0 C97.68 0 195.36 0 296 0 C296 29.37 296 58.74 296 89 C198.32 89 100.64 89 0 89 C0 59.63 0 30.26 0 0 Z " fill="#FAFEFD" transform="translate(0,0)"/>
<path d="M0 0 C97.68 0 195.36 0 296 0 C296 29.37 296 58.74 296 89 C198.32 89 100.64 89 0 89 C0 59.63 0 30.26 0 0 Z M6 12 C5.24564245 14.94210877 5.24564245 14.94210877 5.35302734 18.265625 C5.33726654 19.53374023 5.32150574 20.80185547 5.30526733 22.10839844 C5.31421715 23.48894114 5.32447215 24.8694759 5.3359375 26.25 C5.33256797 27.66960058 5.3277142 29.08919834 5.32144165 30.50878906 C5.31407653 33.48139969 5.32476253 36.45325819 5.34814453 39.42578125 C5.37663414 43.23280704 5.36022794 47.03807059 5.33028221 50.84503174 C5.31219828 53.77568803 5.31797183 56.70592772 5.33092117 59.63659668 C5.33425226 61.0400005 5.33017841 62.44344238 5.31852341 63.84680176 C5.30580076 65.80931863 5.32863752 67.77196844 5.35302734 69.734375 C5.35700531 70.85038086 5.36098328 71.96638672 5.36508179 73.11621094 C5.77966126 76.09061693 5.77966126 76.09061693 7.86077213 78.14849091 C12.47884222 80.87221761 16.59102876 80.55328685 21.86256409 80.50793457 C22.97065664 80.51417453 24.07874919 80.5204145 25.2204203 80.52684355 C28.9408632 80.54282376 32.66065552 80.53014901 36.38110352 80.51757812 C39.04528726 80.52299697 41.70942587 80.52997328 44.37359619 80.53881836 C50.86275914 80.55660905 57.35173707 80.5527614 63.84090728 80.5411678 C69.11393897 80.53213665 74.38691878 80.53090808 79.65995598 80.53526306 C80.78539181 80.53618246 80.78539181 80.53618246 81.93356372 80.53712043 C83.45772014 80.53839932 84.98187655 80.53969617 86.50603294 80.5410108 C100.79917626 80.552418 115.09221698 80.53930032 129.38534348 80.51780933 C141.65335002 80.49993455 153.92120518 80.50304527 166.18920898 80.52148438 C180.4325203 80.54288235 194.67574171 80.5513232 208.91906685 80.53903532 C210.43733115 80.53776111 211.95559546 80.53650363 213.47385979 80.53526306 C214.22089588 80.53464596 214.96793198 80.53402886 215.73760553 80.53339306 C221.00569595 80.5299372 226.2737294 80.53577348 231.54181099 80.54518127 C237.95980469 80.55639059 244.37760267 80.55338374 250.7955739 80.5320583 C254.07108892 80.52153376 257.34620931 80.5195967 260.62173271 80.53065491 C264.16962421 80.54153112 267.71658773 80.52794152 271.26441956 80.50793457 C272.30380458 80.51685746 273.3431896 80.52578034 274.41407114 80.53497362 C279.87881786 80.54511041 279.87881786 80.54511041 284.63922787 78.14849091 C286.48765067 75.2300599 286.50775162 73.18036947 286.51757812 69.734375 C286.53649109 67.83220215 286.53649109 67.83220215 286.55578613 65.89160156 C286.5486263 64.51106205 286.54042231 63.13052761 286.53125 61.75 C286.53394562 60.33040094 286.53782863 58.91080369 286.54284668 57.49121094 C286.54873858 54.51870106 286.54018954 51.54667259 286.52148438 48.57421875 C286.498694 44.76741213 286.51181888 40.96173351 286.53577423 37.15496826 C286.55024114 34.22436044 286.54562235 31.29401926 286.53526306 28.36340332 C286.53259819 26.96000026 286.53585717 25.55657285 286.54518127 24.15319824 C286.55535941 22.19067865 286.5370904 20.22807398 286.51757812 18.265625 C286.51439575 17.14961914 286.51121338 16.03361328 286.50793457 14.88378906 C285.8408002 11.09614611 285.16305337 10.21899069 282 8 C278.42786211 7.38824553 274.88081132 7.46101952 271.26441956 7.49206543 C270.157887 7.48582547 269.05135444 7.4795855 267.91129059 7.47315645 C264.19007629 7.45715575 260.46951059 7.469859 256.74829102 7.48242188 C254.08587725 7.47700387 251.42350872 7.47002818 248.7611084 7.46118164 C242.27214129 7.44337929 235.78335907 7.44724412 229.29438467 7.4588322 C224.02086092 7.46786032 218.74738904 7.46909323 213.47385979 7.46473694 C212.72372247 7.46412401 211.97358514 7.46351107 211.20071639 7.46287957 C209.67688416 7.46160068 208.15305196 7.46030383 206.62921976 7.4589892 C192.33414301 7.44757818 178.03916879 7.46070485 163.74410885 7.48219067 C151.47640855 7.5000585 139.20885967 7.4969612 126.94116211 7.47851562 C112.69931337 7.4571118 98.45755456 7.44868071 84.21569198 7.46096468 C82.69711333 7.46223889 81.17853466 7.46349637 79.65995598 7.46473694 C78.91276561 7.46535404 78.16557524 7.46597114 77.39574273 7.46660694 C72.12863465 7.47006159 66.86158358 7.46422897 61.59448433 7.45481873 C55.17539708 7.4436026 48.7565055 7.44663033 42.33744068 7.4679417 C39.06180891 7.47845817 35.78657105 7.48041303 32.51093102 7.46934509 C28.96114736 7.45845473 25.41228843 7.47207599 21.86256409 7.49206543 C20.82540978 7.48314254 19.78825548 7.47421966 18.71967226 7.46502638 C13.28810606 7.52457161 9.78117891 7.63416263 6 12 Z " fill="#75D7AC" transform="translate(0,0)"/>
<path d="M0 0 C2.97 0 5.94 0 9 0 C9 2.97 9 5.94 9 9 C6.36 9 3.72 9 1 9 C1 9.66 1 10.32 1 11 C3.64 11 6.28 11 9 11 C9 21.89 9 32.78 9 44 C-0.10769231 45.13846154 -0.10769231 45.13846154 -3.9375 45.125 C-5.06478516 45.12886719 -5.06478516 45.12886719 -6.21484375 45.1328125 C-8 45 -8 45 -9 44 C-9.08748207 42.07332493 -9.10697334 40.14348139 -9.09765625 38.21484375 C-9.09443359 37.04501953 -9.09121094 35.87519531 -9.08789062 34.66992188 C-9.07951172 33.43822266 -9.07113281 32.20652344 -9.0625 30.9375 C-9.05798828 29.70193359 -9.05347656 28.46636719 -9.04882812 27.19335938 C-9.03699608 24.12885883 -9.02051173 21.06445279 -9 18 C-9.66 18 -10.32 18 -11 18 C-11.04898438 19.05058594 -11.09796875 20.10117187 -11.1484375 21.18359375 C-11.53376426 28.65875491 -12.05427553 35.73596197 -14 43 C-15.98 43 -17.96 43 -20 43 C-21.64733759 35.01920915 -22.50877547 27.13105861 -23 19 C-23.66 19 -24.32 19 -25 19 C-24.67 26.92 -24.34 34.84 -24 43 C-26.31 43 -28.62 43 -31 43 C-31 29.47 -31 15.94 -31 2 C-27.7 2 -24.4 2 -21 2 C-20.86722656 2.78246094 -20.73445312 3.56492187 -20.59765625 4.37109375 C-20.42105469 5.38300781 -20.24445313 6.39492188 -20.0625 7.4375 C-19.88847656 8.44683594 -19.71445313 9.45617187 -19.53515625 10.49609375 C-19.25248903 12.9287438 -19.25248903 12.9287438 -18 14 C-17.67 9.71 -17.34 5.42 -17 1 C-12.71 1.33 -8.42 1.66 -4 2 C-3.67 3.98 -3.34 5.96 -3 8 C-2.01 5.36 -1.02 2.72 0 0 Z " fill="#7AD6AF" transform="translate(173,22)"/>
<path d="M0 0 C3.3 0 6.6 0 10 0 C10 6.6 10 13.2 10 20 C12.31 20 14.62 20 17 20 C16.835 18.9275 16.67 17.855 16.5 16.75 C15.78839274 11.17741358 15.91588954 5.60736426 16 0 C17.66611905 -0.042721 19.33382885 -0.04063832 21 0 C22.77260826 1.77260826 22.23513676 4.36004803 22.31640625 6.765625 C22.35830078 7.96703125 22.40019531 9.1684375 22.44335938 10.40625 C22.48267578 11.6746875 22.52199219 12.943125 22.5625 14.25 C22.60568359 15.47203125 22.64886719 16.6940625 22.69335938 17.953125 C22.9609218 25.97150376 23.05306786 33.9774876 23 42 C20.69 42 18.38 42 16 42 C16 36.72 16 31.44 16 26 C14.02 26 12.04 26 10 26 C10 31.28 10 36.56 10 42 C6.7 42 3.4 42 0 42 C0 28.14 0 14.28 0 0 Z " fill="#76D5AC" transform="translate(93,23)"/>
<path d="M0 0 C1.27875 0.00257812 2.5575 0.00515625 3.875 0.0078125 C5.15375 0.00523438 6.4325 0.00265625 7.75 0 C10.875 0.1328125 10.875 0.1328125 11.875 1.1328125 C13.4542584 14.70273653 12.98099436 28.50030759 12.875 42.1328125 C10.235 42.1328125 7.595 42.1328125 4.875 42.1328125 C4.875 37.8428125 4.875 33.5528125 4.875 29.1328125 C2.895 29.1328125 0.915 29.1328125 -1.125 29.1328125 C-1.455 33.4228125 -1.785 37.7128125 -2.125 42.1328125 C-4.105 42.1328125 -6.085 42.1328125 -8.125 42.1328125 C-7.75369662 31.87715696 -6.94836759 21.75012446 -5.625 11.5703125 C-5.49440186 10.55316162 -5.36380371 9.53601074 -5.22924805 8.48803711 C-4.10834378 0.17460461 -4.10834378 0.17460461 0 0 Z " fill="#7DD7B1" transform="translate(216.125,22.8671875)"/>
<path d="M0 0 C2.7708983 -0.02696009 5.5415345 -0.04681952 8.3125 -0.0625 C9.09818359 -0.07087891 9.88386719 -0.07925781 10.69335938 -0.08789062 C11.45068359 -0.09111328 12.20800781 -0.09433594 12.98828125 -0.09765625 C13.68477783 -0.10289307 14.38127441 -0.10812988 15.09887695 -0.11352539 C17 0 17 0 20 1 C21.75752146 4.51504291 21.26953401 8.50233252 21.3125 12.375 C21.34150391 13.23867188 21.37050781 14.10234375 21.40039062 14.9921875 C21.46444136 21.37755282 21.46444136 21.37755282 19.10546875 24.5390625 C15.52691786 27.02213863 13.33929601 27.09433252 9 27 C9.01160156 27.99902344 9.02320313 28.99804688 9.03515625 30.02734375 C9.04417969 31.31769531 9.05320312 32.60804687 9.0625 33.9375 C9.07410156 35.22527344 9.08570313 36.51304688 9.09765625 37.83984375 C9 41 9 41 8 42 C5.66702567 42.04092937 3.33294775 42.04241723 1 42 C0.03150877 32.73655058 -0.12190023 23.55678381 -0.0625 14.25 C-0.05746857 12.85937663 -0.0529086 11.46875148 -0.04882812 10.078125 C-0.03716347 6.71870295 -0.02079614 3.35937581 0 0 Z " fill="#75D3AB" transform="translate(20,23)"/>
<path d="M0 0 C1.53333984 0.00966797 1.53333984 0.00966797 3.09765625 0.01953125 C5.9375 0.1875 5.9375 0.1875 9.9375 1.1875 C9.9375 6.1375 9.9375 11.0875 9.9375 16.1875 C7.2975 16.1875 4.6575 16.1875 1.9375 16.1875 C1.9375 13.5475 1.9375 10.9075 1.9375 8.1875 C0.2875 8.1875 -1.3625 8.1875 -3.0625 8.1875 C-2.7325 18.0875 -2.4025 27.9875 -2.0625 38.1875 C-0.7425 38.5175 0.5775 38.8475 1.9375 39.1875 C1.9375 35.2275 1.9375 31.2675 1.9375 27.1875 C4.5775 27.1875 7.2175 27.1875 9.9375 27.1875 C10.01825665 29.47859597 10.07657731 31.77049267 10.125 34.0625 C10.17720703 35.97675781 10.17720703 35.97675781 10.23046875 37.9296875 C10.08544922 39.54230469 10.08544922 39.54230469 9.9375 41.1875 C6.36246362 43.57085758 3.64228409 43.62395585 -0.5 43.6875 C-2.47806641 43.76484375 -2.47806641 43.76484375 -4.49609375 43.84375 C-8.0625 43.1875 -8.0625 43.1875 -10.515625 41.02734375 C-13.41142132 35.71642031 -12.51019808 29.09356137 -12.375 23.25 C-12.36533203 22.00025391 -12.35566406 20.75050781 -12.34570312 19.46289062 C-12.27437015 13.6228913 -12.11656003 7.93769741 -11.0625 2.1875 C-7.223098 0.39860735 -4.22279776 -0.05872412 0 0 Z " fill="#7FD5B1" transform="translate(80.0625,22.8125)"/>
<path d="M0 0 C1.13308594 0.02449219 2.26617187 0.04898437 3.43359375 0.07421875 C6.5625 0.3125 6.5625 0.3125 10.5625 1.3125 C10.5625 7.9125 10.5625 14.5125 10.5625 21.3125 C8.9125 21.3125 7.2625 21.3125 5.5625 21.3125 C5.5625 17.6825 5.5625 14.0525 5.5625 10.3125 C3.2525 10.3125 0.9425 10.3125 -1.4375 10.3125 C-1.7675 18.2325 -2.0975 26.1525 -2.4375 34.3125 C0.2025 34.3125 2.8425 34.3125 5.5625 34.3125 C5.5625 32.3325 5.5625 30.3525 5.5625 28.3125 C6.8825 28.3125 8.2025 28.3125 9.5625 28.3125 C9.5625 32.6025 9.5625 36.8925 9.5625 41.3125 C6.60662889 42.79043555 3.91252355 42.48303651 0.625 42.5 C-0.62152344 42.51417969 -1.86804688 42.52835938 -3.15234375 42.54296875 C-6.4375 42.3125 -6.4375 42.3125 -9.4375 40.3125 C-12.67513036 32.3486736 -10.5280547 20.1279087 -10.125 11.5625 C-10.06699219 10.26828125 -10.00898438 8.9740625 -9.94921875 7.640625 C-8.91446828 0.91079749 -6.61370491 -0.21770425 0 0 Z " fill="#7AD7B0" transform="translate(196.4375,22.6875)"/>
<path d="M0 0 C1.051875 -0.01417969 2.10375 -0.02835938 3.1875 -0.04296875 C6 0.1875 6 0.1875 9 2.1875 C9.29296875 5.0078125 9.29296875 5.0078125 9.1875 8.3125 C9.16042969 9.40820312 9.13335937 10.50390625 9.10546875 11.6328125 C9.07066406 12.47585937 9.03585937 13.31890625 9 14.1875 C6.69 14.1875 4.38 14.1875 2 14.1875 C2 12.2075 2 10.2275 2 8.1875 C0.68 8.5175 -0.64 8.8475 -2 9.1875 C-2.33 12.1575 -2.66 15.1275 -3 18.1875 C-0.78645833 18.15494792 1.42708333 18.12239583 3.640625 18.08984375 C5.90691002 18.18364694 7.8288895 18.55508937 10 19.1875 C10.20211361 35.37904557 10.20211361 35.37904557 9 40.1875 C5.53767506 42.49571663 4.08201684 42.45750989 0 42.4375 C-1.051875 42.44265625 -2.10375 42.4478125 -3.1875 42.453125 C-6 42.1875 -6 42.1875 -9 40.1875 C-9.29296875 36.9296875 -9.29296875 36.9296875 -9.1875 33.0625 C-9.16042969 31.78117187 -9.13335937 30.49984375 -9.10546875 29.1796875 C-9.07066406 28.19226563 -9.03585938 27.20484375 -9 26.1875 C-7.02 26.1875 -5.04 26.1875 -3 26.1875 C-3 28.4975 -3 30.8075 -3 33.1875 C-1.02 33.1875 0.96 33.1875 3 33.1875 C3 29.8875 3 26.5875 3 23.1875 C-0.96 23.1875 -4.92 23.1875 -9 23.1875 C-9 15.9275 -9 8.6675 -9 1.1875 C-5.79226388 0.11825463 -3.37015182 0.02065044 0 0 Z " fill="#80D6B2" transform="translate(262,22.8125)"/>
<path d="M0 0 C6.27 0 12.54 0 19 0 C19 3.63 19 7.26 19 11 C15.04 11 11.08 11 7 11 C7 13.31 7 15.62 7 18 C10.3 18 13.6 18 17 18 C17 19.65 17 21.3 17 23 C14.03 23 11.06 23 8 23 C8 25.97 8 28.94 8 32 C11.96 32 15.92 32 20 32 C20 34.97 20 37.94 20 41 C13.4 41 6.8 41 0 41 C0 27.47 0 13.94 0 0 Z " fill="#76D6AE" transform="translate(119,24)"/>
<path d="M0 0 C2.97 0 5.94 0 9 0 C9 2.97 9 5.94 9 9 C6.36 9 3.72 9 1 9 C1 9.66 1 10.32 1 11 C3.64 11 6.28 11 9 11 C9 21.89 9 32.78 9 44 C0 45.125 0 45.125 -4 45.0625 C-4.763125 45.05347656 -5.52625 45.04445312 -6.3125 45.03515625 C-6.869375 45.02355469 -7.42625 45.01195312 -8 45 C-8.33 44.34 -8.66 43.68 -9 43 C-7.35 43 -5.7 43 -4 43 C-4.33 29.47 -4.66 15.94 -5 2 C-4.67 2 -4.34 2 -4 2 C-3.67 3.98 -3.34 5.96 -3 8 C-2.01 5.36 -1.02 2.72 0 0 Z " fill="#EAFDF6" transform="translate(173,22)"/>
<path d="M0 0 C2.64 0 5.28 0 8 0 C9.54863345 4.281516 10.48152364 8.37066549 11.125 12.875 C11.29257812 14.02742188 11.46015625 15.17984375 11.6328125 16.3671875 C11.75398438 17.23601563 11.87515625 18.10484375 12 19 C13.4999411 17.5000589 13.31607651 16.05340395 13.53515625 13.96484375 C13.66567383 12.75151367 13.66567383 12.75151367 13.79882812 11.51367188 C13.88583984 10.66353516 13.97285156 9.81339844 14.0625 8.9375 C14.15337891 8.08349609 14.24425781 7.22949219 14.33789062 6.34960938 C14.56250722 4.23348465 14.78175227 2.11679106 15 0 C17.97 0 20.94 0 24 0 C23.44816488 4.94770351 22.31330681 9.06462187 20.5 13.6875 C17.1232647 22.90036148 17.10849143 32.28508564 17 42 C13.7 42 10.4 42 7 42 C7.05800781 40.86304688 7.11601563 39.72609375 7.17578125 38.5546875 C7.55337296 27.77104358 6.27384214 19.9982004 2 10 C0.62487814 6.28993967 0 4.00479696 0 0 Z " fill="#76D4AC" transform="translate(42,23)"/>
<path d="M0 0 C3.63 0 7.26 0 11 0 C11 11.55 11 23.1 11 35 C13.64 35 16.28 35 19 35 C19 37.31 19 39.62 19 42 C13.06 42 7.12 42 1 42 C0.186803 27.97235183 -0.12019135 14.04903369 0 0 Z " fill="#7AD8B1" transform="translate(232,23)"/>
<path d="M0 0 C1.32 0 2.64 0 4 0 C4 13.53 4 27.06 4 41 C6.31 41 8.62 41 11 41 C11 41.33 11 41.66 11 42 C-1.87 42 -14.74 42 -28 42 C-28 41.67 -28 41.34 -28 41 C-26.02 41 -24.04 41 -22 41 C-22 38.69 -22 36.38 -22 34 C-21.67 34 -21.34 34 -21 34 C-20.67 26.74 -20.34 19.48 -20 12 C-19.67 12 -19.34 12 -19 12 C-19 21.57 -19 31.14 -19 41 C-12.4 41 -5.8 41 1 41 C1 38.03 1 35.06 1 32 C-2.96 32 -6.92 32 -11 32 C-11 29.03 -11 26.06 -11 23 C-8.03 23 -5.06 23 -2 23 C-2 21.35 -2 19.7 -2 18 C-5.3 18 -8.6 18 -12 18 C-12 15.69 -12 13.38 -12 11 C-8.04 11 -4.08 11 0 11 C0 7.37 0 3.74 0 0 Z " fill="#F7FDFC" transform="translate(138,24)"/>
<path d="M0 0 C0.33 0 0.66 0 1 0 C1 20.79 1 41.58 1 63 C2.32 63.33 3.64 63.66 5 64 C5.33 63.01 5.66 62.02 6 61 C6.99 61.33 7.98 61.66 9 62 C8.34 63.32 7.68 64.64 7 66 C140.155 66.495 140.155 66.495 276 67 C276 67.33 276 67.66 276 68 C241.561333 68.09152332 207.12269372 68.16202232 172.6839314 68.20426132 C168.61960967 68.20926424 164.55528817 68.21444152 160.4909668 68.21972656 C159.68182175 68.2207758 158.87267669 68.22182505 158.0390121 68.22290608 C144.93147032 68.24031896 131.8239986 68.2718615 118.71649841 68.30861118 C105.27046109 68.34599607 91.82446049 68.36823065 78.37837332 68.37635398 C70.07906852 68.38184686 61.77996172 68.39920553 53.48071786 68.43166587 C47.79228765 68.45278351 42.10396005 68.45920631 36.41549347 68.45400551 C33.13176183 68.45143938 29.84845043 68.45759252 26.56476402 68.4768219 C23.00605719 68.49664491 19.44820612 68.49196639 15.88948059 68.48101807 C14.84959781 68.49266943 13.80971503 68.5043208 12.73832065 68.51632524 C8.32745691 68.47950069 5.71771463 68.42202828 1.856987 66.15185547 C-0.65823381 63.23724612 -0.60523645 61.49202313 -0.56762695 57.67089844 C-0.5672493 56.38987244 -0.56687164 55.10884644 -0.56648254 53.78900146 C-0.54095112 52.39578272 -0.51487117 51.00257394 -0.48828125 49.609375 C-0.47895167 48.18020871 -0.47183624 46.75102639 -0.46684265 45.32183838 C-0.44778355 41.56656472 -0.39869432 37.81226343 -0.34332275 34.05737305 C-0.29210548 30.22327834 -0.26932346 26.38902595 -0.24414062 22.5546875 C-0.19057265 15.03601581 -0.10527541 7.51814433 0 0 Z " fill="#E9FEF8" transform="translate(6,12)"/>
<path d="M0 0 C3.3 0 6.6 0 10 0 C10 6.6 10 13.2 10 20 C12.31 20 14.62 20 17 20 C16.835 18.9275 16.67 17.855 16.5 16.75 C15.78839274 11.17741358 15.91588954 5.60736426 16 0 C17.66611905 -0.042721 19.33382885 -0.04063832 21 0 C22.77260826 1.77260826 22.23513676 4.36004803 22.31640625 6.765625 C22.35830078 7.96703125 22.40019531 9.1684375 22.44335938 10.40625 C22.48267578 11.6746875 22.52199219 12.943125 22.5625 14.25 C22.60568359 15.47203125 22.64886719 16.6940625 22.69335938 17.953125 C22.9609218 25.97150376 23.05306786 33.9774876 23 42 C20.69 42 18.38 42 16 42 C16 36.72 16 31.44 16 26 C14.02 26 12.04 26 10 26 C10.66 25.34 11.32 24.68 12 24 C12.99 24 13.98 24 15 24 C15 23.34 15 22.68 15 22 C13.02 22 11.04 22 9 22 C9 15.07 9 8.14 9 1 C6.36 1 3.72 1 1 1 C1 14.53 1 28.06 1 42 C0.67 42 0.34 42 0 42 C0 28.14 0 14.28 0 0 Z " fill="#78D4AE" transform="translate(93,23)"/>
<path d="M0 0 C0.33 0 0.66 0 1 0 C1.33 2.97 1.66 5.94 2 9 C2.33 9 2.66 9 3 9 C2.85803484 11.85440587 2.71154174 14.70846196 2.5625 17.5625 C2.52318359 18.36236328 2.48386719 19.16222656 2.44335938 19.98632812 C2.19293765 24.70581446 1.92088107 29.35900334 1 34 C-1.64458379 35.32229189 -3.67761301 35.09677194 -6.625 35.0625 C-7.62789062 35.05347656 -8.63078125 35.04445312 -9.6640625 35.03515625 C-10.43492187 35.02355469 -11.20578125 35.01195312 -12 35 C-12 34.67 -12 34.34 -12 34 C-6.555 33.505 -6.555 33.505 -1 33 C-1 28.71 -1 24.42 -1 20 C-2.32 20 -3.64 20 -5 20 C-5 21.98 -5 23.96 -5 26 C-7.64 26 -10.28 26 -13 26 C-13.02909763 22.75001888 -13.04683161 19.50007143 -13.0625 16.25 C-13.07087891 15.32960938 -13.07925781 14.40921875 -13.08789062 13.4609375 C-13.09111328 12.57148437 -13.09433594 11.68203125 -13.09765625 10.765625 C-13.10289307 9.94868164 -13.10812988 9.13173828 -13.11352539 8.29003906 C-13.00299021 6.06031865 -12.62055567 4.13866245 -12 2 C-9.69 2 -7.38 2 -5 2 C-5 5.63 -5 9.26 -5 13 C-3.35 13 -1.7 13 0 13 C0 8.71 0 4.42 0 0 Z " fill="#F5FEFB" transform="translate(207,31)"/>
<path d="M0 0 C2.97 0 5.94 0 9 0 C9 10.23 9 20.46 9 31 C6.03 31 3.06 31 0 31 C0 20.77 0 10.54 0 0 Z " fill="#77D7AE" transform="translate(173,34)"/>
<path d="M0 0 C1.27875 0.00257812 2.5575 0.00515625 3.875 0.0078125 C5.15375 0.00523438 6.4325 0.00265625 7.75 0 C10.875 0.1328125 10.875 0.1328125 11.875 1.1328125 C11.94705511 2.81890216 11.95886068 4.50781909 11.9375 6.1953125 C11.92847656 7.11441406 11.91945312 8.03351562 11.91015625 8.98046875 C11.89855469 9.69074219 11.88695312 10.40101562 11.875 11.1328125 C11.545 11.1328125 11.215 11.1328125 10.875 11.1328125 C10.875 8.4928125 10.875 5.8528125 10.875 3.1328125 C6.915 3.1328125 2.955 3.1328125 -1.125 3.1328125 C-1.785 5.1128125 -2.445 7.0928125 -3.125 9.1328125 C-1.145 9.1328125 0.835 9.1328125 2.875 9.1328125 C5.2742233 13.78130765 5.07457409 18.04367324 4.875 23.1328125 C2.235 23.1328125 -0.405 23.1328125 -3.125 23.1328125 C-3.125 20.8228125 -3.125 18.5128125 -3.125 16.1328125 C-4.78842837 17.79624087 -4.48548097 19.9153834 -4.6875 22.1953125 C-4.81318359 23.57396484 -4.81318359 23.57396484 -4.94140625 24.98046875 C-5.00199219 25.69074219 -5.06257812 26.40101562 -5.125 27.1328125 C-3.475 27.1328125 -1.825 27.1328125 -0.125 27.1328125 C-0.785 32.0828125 -1.445 37.0328125 -2.125 42.1328125 C-4.105 42.1328125 -6.085 42.1328125 -8.125 42.1328125 C-7.75369662 31.87715696 -6.94836759 21.75012446 -5.625 11.5703125 C-5.49440186 10.55316162 -5.36380371 9.53601074 -5.22924805 8.48803711 C-4.10834378 0.17460461 -4.10834378 0.17460461 0 0 Z " fill="#8ED6B8" transform="translate(216.125,22.8671875)"/>
<path d="M0 0 C2.7708983 -0.02696009 5.5415345 -0.04681952 8.3125 -0.0625 C9.09818359 -0.07087891 9.88386719 -0.07925781 10.69335938 -0.08789062 C11.45068359 -0.09111328 12.20800781 -0.09433594 12.98828125 -0.09765625 C13.68477783 -0.10289307 14.38127441 -0.10812988 15.09887695 -0.11352539 C17 0 17 0 20 1 C19.67 1.66 19.34 2.32 19 3 C18.21882813 2.75443359 18.21882813 2.75443359 17.421875 2.50390625 C14.3243125 1.85941341 11.41158906 1.90588411 8.25 1.9375 C6.49429687 1.95103516 6.49429687 1.95103516 4.703125 1.96484375 C3.81109375 1.97644531 2.9190625 1.98804687 2 2 C2.33 3.65 2.66 5.3 3 7 C4.258125 6.938125 5.51625 6.87625 6.8125 6.8125 C9.41777518 6.68437171 10.58873223 6.71358138 12.75 8.21875 C15.05503015 11.50341797 14.16892481 15.11472944 14 19 C10.7 19 7.4 19 4 19 C3.11978631 25.71162938 2.88618045 32.23405981 3 39 C4.32 39.33 5.64 39.66 7 40 C7.33 36.04 7.66 32.08 8 28 C8.33 28 8.66 28 9 28 C9.02685938 30.14576637 9.04633088 32.29162645 9.0625 34.4375 C9.07410156 35.63246094 9.08570313 36.82742187 9.09765625 38.05859375 C9 41 9 41 8 42 C5.66702567 42.04092937 3.33294775 42.04241723 1 42 C0.03150877 32.73655058 -0.12190023 23.55678381 -0.0625 14.25 C-0.05746857 12.85937663 -0.0529086 11.46875148 -0.04882812 10.078125 C-0.03716347 6.71870295 -0.02079614 3.35937581 0 0 Z " fill="#8CD6B6" transform="translate(20,23)"/>
<path d="M0 0 C6.27 0 12.54 0 19 0 C19 3.63 19 7.26 19 11 C15.04 11 11.08 11 7 11 C7 13.31 7 15.62 7 18 C10.3 18 13.6 18 17 18 C17 19.65 17 21.3 17 23 C13.7 23 10.4 23 7 23 C7 22.34 7 21.68 7 21 C5.68 20.67 4.36 20.34 3 20 C2.78624439 16.86491773 2.65278553 14.66549439 4.125 11.84375 C6.72524837 9.2868391 8.59545563 9.40449653 12.1875 9.25 C13.81751953 9.16492188 13.81751953 9.16492188 15.48046875 9.078125 C16.31191406 9.05234375 17.14335937 9.0265625 18 9 C18 6.36 18 3.72 18 1 C12.72 1 7.44 1 2 1 C2.01160156 2.22332031 2.02320312 3.44664063 2.03515625 4.70703125 C2.11071633 16.51801646 1.71458426 28.20935965 1 40 C6.94 40 12.88 40 19 40 C19 37.69 19 35.38 19 33 C17.02 33 15.04 33 13 33 C13 32.67 13 32.34 13 32 C15.31 32 17.62 32 20 32 C20 34.97 20 37.94 20 41 C13.4 41 6.8 41 0 41 C0 27.47 0 13.94 0 0 Z " fill="#87D2B3" transform="translate(119,24)"/>
<path d="M0 0 C1.13308594 0.02449219 2.26617187 0.04898437 3.43359375 0.07421875 C6.5625 0.3125 6.5625 0.3125 10.5625 1.3125 C10.5625 7.9125 10.5625 14.5125 10.5625 21.3125 C8.9125 21.3125 7.2625 21.3125 5.5625 21.3125 C5.5625 17.6825 5.5625 14.0525 5.5625 10.3125 C3.2525 10.3125 0.9425 10.3125 -1.4375 10.3125 C-1.7675 18.2325 -2.0975 26.1525 -2.4375 34.3125 C-2.7675 34.3125 -3.0975 34.3125 -3.4375 34.3125 C-3.46649599 30.54168278 -3.48429729 26.77089417 -3.5 23 C-3.50837891 21.92814453 -3.51675781 20.85628906 -3.52539062 19.75195312 C-3.52861328 18.72392578 -3.53183594 17.69589844 -3.53515625 16.63671875 C-3.54039307 15.68885498 -3.54562988 14.74099121 -3.55102539 13.7644043 C-3.4375 11.3125 -3.4375 11.3125 -2.4375 8.3125 C-0.7875 7.9825 0.8625 7.6525 2.5625 7.3125 C2.8925 5.6625 3.2225 4.0125 3.5625 2.3125 C1.9364713 2.37250106 0.31148451 2.4612885 -1.3125 2.5625 C-2.21742188 2.60890625 -3.12234375 2.6553125 -4.0546875 2.703125 C-6.60860544 3.06861148 -6.60860544 3.06861148 -7.7578125 5.359375 C-7.98210937 6.00390625 -8.20640625 6.6484375 -8.4375 7.3125 C-9.4375 4.3125 -9.4375 4.3125 -8.40234375 2.14453125 C-5.61725158 -0.45230419 -3.74689806 -0.12333717 0 0 Z " fill="#8ED9BA" transform="translate(196.4375,22.6875)"/>
<path d="M0 0 C1.32 0 2.64 0 4 0 C4 13.53 4 27.06 4 41 C6.31 41 8.62 41 11 41 C11 41.33 11 41.66 11 42 C-1.87 42 -14.74 42 -28 42 C-28 41.67 -28 41.34 -28 41 C-26.02 41 -24.04 41 -22 41 C-22 38.69 -22 36.38 -22 34 C-21.67 34 -21.34 34 -21 34 C-20.67 26.74 -20.34 19.48 -20 12 C-19.67 12 -19.34 12 -19 12 C-19 21.57 -19 31.14 -19 41 C-12.4 41 -5.8 41 1 41 C1 38.03 1 35.06 1 32 C1.33 31.67 1.66 31.34 2 31 C2.08669432 29.5112814 2.10703494 28.018555 2.09765625 26.52734375 C2.09282227 25.17866211 2.09282227 25.17866211 2.08789062 23.80273438 C2.07951172 22.85720703 2.07113281 21.91167969 2.0625 20.9375 C2.05798828 19.98810547 2.05347656 19.03871094 2.04882812 18.06054688 C2.0370011 15.70696935 2.02052025 13.35351523 2 11 C1.34 11 0.68 11 0 11 C0 7.37 0 3.74 0 0 Z " fill="#E4FEF8" transform="translate(138,24)"/>
<path d="M0 0 C3.63 0 7.26 0 11 0 C11 11.55 11 23.1 11 35 C13.64 35 16.28 35 19 35 C19 37.31 19 39.62 19 42 C13.06 42 7.12 42 1 42 C1 36.06 1 30.12 1 24 C1.33 24 1.66 24 2 24 C2 29.61 2 35.22 2 41 C7.28 41 12.56 41 18 41 C17.67 40.01 17.34 39.02 17 38 C15.2984375 37.814375 15.2984375 37.814375 13.5625 37.625 C12.386875 37.41875 11.21125 37.2125 10 37 C8.49393485 33.98786971 8.87839669 30.88717378 8.90234375 27.5859375 C8.9037587 26.85629791 8.90517365 26.12665833 8.90663147 25.37490845 C8.91223469 23.04156415 8.92478765 20.70831536 8.9375 18.375 C8.94251459 16.79427222 8.94707757 15.21354293 8.95117188 13.6328125 C8.96220516 9.75517146 8.97947189 5.87760193 9 2 C6.36 2 3.72 2 1 2 C1 8.6 1 15.2 1 22 C0.67 22 0.34 22 0 22 C0 14.74 0 7.48 0 0 Z " fill="#A5DEC6" transform="translate(232,23)"/>
<path d="M0 0 C0.33 0 0.66 0 1 0 C1 6.6 1 13.2 1 20 C6.61 20 12.22 20 18 20 C10.35176118 25.09882588 -3.99311992 21.59130748 -13 21 C-13 17.04 -13 13.08 -13 9 C-14.32 9 -15.64 9 -17 9 C-17 8.34 -17 7.68 -17 7 C-15.02 7 -13.04 7 -11 7 C-11 11.29 -11 15.58 -11 20 C-8.36 20 -5.72 20 -3 20 C-3 14.39 -3 8.78 -3 3 C-2.34 3 -1.68 3 -1 3 C-0.67 2.01 -0.34 1.02 0 0 Z " fill="#DBFAEE" transform="translate(232,45)"/>
<path d="M0 0 C3.96 0.33 7.92 0.66 12 1 C12.89609511 10.11618016 13.12231575 19.09358898 13.0625 28.25 C13.05746786 29.59244622 13.05290802 30.9348943 13.04882812 32.27734375 C13.03717009 35.5182781 13.02080774 38.75911369 13 42 C11.35 42 9.7 42 8 42 C8 33.75 8 25.5 8 17 C7.34 17 6.68 17 6 17 C5.93941406 18.08539063 5.87882813 19.17078125 5.81640625 20.2890625 C5.73193936 21.73438486 5.64729449 23.17969682 5.5625 24.625 C5.50352539 25.69427734 5.50352539 25.69427734 5.44335938 26.78515625 C5.19690319 30.91803682 4.76529947 34.92269024 4 39 C3.67 39 3.34 39 3 39 C2.7299442 31.1683819 3.76892281 23.72720775 5 16 C6.32 16 7.64 16 9 16 C9.33 23.92 9.66 31.84 10 40 C10.33 27.46 10.66 14.92 11 2 C7.7 2 4.4 2 1 2 C0.67 2.99 0.34 3.98 0 5 C0 3.35 0 1.7 0 0 Z " fill="#90D4B8" transform="translate(156,23)"/>
<path d="M0 0 C1.051875 -0.01417969 2.10375 -0.02835938 3.1875 -0.04296875 C6 0.1875 6 0.1875 9 2.1875 C9.29296875 5.0078125 9.29296875 5.0078125 9.1875 8.3125 C9.16042969 9.40820312 9.13335937 10.50390625 9.10546875 11.6328125 C9.07066406 12.47585937 9.03585937 13.31890625 9 14.1875 C6.69 14.1875 4.38 14.1875 2 14.1875 C2.33 13.1975 2.66 12.2075 3 11.1875 C3.99 11.5175 4.98 11.8475 6 12.1875 C7.28403083 7.6933921 6.90525135 6.95062838 5 2.1875 C0.71 2.1875 -3.58 2.1875 -8 2.1875 C-8 8.7875 -8 15.3875 -8 22.1875 C-5.69 21.5275 -3.38 20.8675 -1 20.1875 C-1.33 19.5275 -1.66 18.8675 -2 18.1875 C-0.7625 18.166875 0.475 18.14625 1.75 18.125 C2.44609375 18.11339844 3.1421875 18.10179688 3.859375 18.08984375 C6 18.1875 6 18.1875 10 19.1875 C10 23.8075 10 28.4275 10 33.1875 C9.67 33.1875 9.34 33.1875 9 33.1875 C8.67 29.5575 8.34 25.9275 8 22.1875 C6.35 21.8575 4.7 21.5275 3 21.1875 C3 21.8475 3 22.5075 3 23.1875 C-0.96 23.1875 -4.92 23.1875 -9 23.1875 C-9 15.9275 -9 8.6675 -9 1.1875 C-5.79226388 0.11825463 -3.37015182 0.02065044 0 0 Z " fill="#99D9BE" transform="translate(262,22.8125)"/>
<path d="M0 0 C0 3.96 0 7.92 0 12 C-2.31 12 -4.62 12 -7 12 C-7.2475 10.88625 -7.495 9.7725 -7.75 8.625 C-8.61005339 4.95384802 -8.61005339 4.95384802 -11.125 3.5625 C-11.74375 3.376875 -12.3625 3.19125 -13 3 C-13 4.32 -13 5.64 -13 7 C-13.66 7 -14.32 7 -15 7 C-15 5.68 -15 4.36 -15 3 C-15.99 3 -16.98 3 -18 3 C-18 2.01 -18 1.02 -18 0 C-11.67370431 -0.90375653 -6.32629569 -0.90375653 0 0 Z " fill="#71D7AC" transform="translate(89,25)"/>
<path d="M0 0 C3.3 0 6.6 0 10 0 C10 6.6 10 13.2 10 20 C12.31 20 14.62 20 17 20 C17 27.26 17 34.52 17 42 C16.67 42 16.34 42 16 42 C16 36.72 16 31.44 16 26 C14.02 26 12.04 26 10 26 C10.66 25.34 11.32 24.68 12 24 C12.99 24 13.98 24 15 24 C15 23.34 15 22.68 15 22 C13.02 22 11.04 22 9 22 C9 15.07 9 8.14 9 1 C6.36 1 3.72 1 1 1 C1 14.53 1 28.06 1 42 C0.67 42 0.34 42 0 42 C0 28.14 0 14.28 0 0 Z " fill="#A2D9C1" transform="translate(93,23)"/>
<path d="M0 0 C1.32 0 2.64 0 4 0 C5.38226016 2.76452033 5.09525387 5.0461363 5.0625 8.125 C5.05347656 9.22070312 5.04445313 10.31640625 5.03515625 11.4453125 C5.02355469 12.28835937 5.01195312 13.13140625 5 14 C4.01 14.33 3.02 14.66 2 15 C2 15.66 2 16.32 2 17 C2.66 17 3.32 17 4 17 C4 17.66 4 18.32 4 19 C-0.29 18.67 -4.58 18.34 -9 18 C-9 15.03 -9 12.06 -9 9 C-7.35 8.67 -5.7 8.34 -4 8 C-4 9.98 -4 11.96 -4 14 C-1.69 14 0.62 14 3 14 C2.88617347 12.04098546 2.75858875 10.0827662 2.625 8.125 C2.55539062 7.03445312 2.48578125 5.94390625 2.4140625 4.8203125 C2.26746509 1.86953526 2.26746509 1.86953526 0 0 Z " fill="#E7FDF5" transform="translate(268,23)"/>
<path d="M0 0 C2.97 0 5.94 0 9 0 C9 10.23 9 20.46 9 31 C6.03 31 3.06 31 0 31 C0 20.77 0 10.54 0 0 Z M3 1 C0.95826465 4.37698788 0.76474961 6.94546223 0.8046875 10.859375 C0.81113281 11.97441406 0.81757813 13.08945312 0.82421875 14.23828125 C0.84097656 15.39714844 0.85773438 16.55601563 0.875 17.75 C0.88402344 18.92433594 0.89304688 20.09867188 0.90234375 21.30859375 C0.92589937 24.20593536 0.95879348 27.10286441 1 30 C3.31 30 5.62 30 8 30 C8.10371911 20.27345227 8.04518445 10.68662016 7 1 C5.68 1 4.36 1 3 1 Z " fill="#8BD1B4" transform="translate(173,34)"/>
<path d="M0 0 C1.66611905 -0.042721 3.33382885 -0.04063832 5 0 C6.77260826 1.77260826 6.23513676 4.36004803 6.31640625 6.765625 C6.35830078 7.96703125 6.40019531 9.1684375 6.44335938 10.40625 C6.48267578 11.6746875 6.52199219 12.943125 6.5625 14.25 C6.60568359 15.47203125 6.64886719 16.6940625 6.69335938 17.953125 C6.9609218 25.97150376 7.05306786 33.9774876 7 42 C6.67 42 6.34 42 6 42 C4.74164834 28.64005361 3.64458777 15.42668441 4 2 C3.34 2 2.68 2 2 2 C2 7.94 2 13.88 2 20 C1.67 20 1.34 20 1 20 C-0.03026944 13.30324864 -0.10152799 6.7685324 0 0 Z " fill="#98D8BD" transform="translate(109,23)"/>
<path d="M0 0 C0.33 0 0.66 0 1 0 C0.99476318 0.91813477 0.98952637 1.83626953 0.98413086 2.78222656 C0.96706402 6.19645823 0.95453768 9.61064441 0.94506836 13.02490234 C0.94004712 14.50114661 0.93322884 15.97738592 0.92456055 17.45361328 C0.91239811 19.57846298 0.90674954 21.70324678 0.90234375 23.828125 C0.89710693 25.1059082 0.89187012 26.38369141 0.88647461 27.70019531 C1.03335443 32.94426231 1.03335443 32.94426231 4 37 C2.68 37 1.36 37 0 37 C-0.76636091 33.53910321 -1.17149371 30.23922512 -1.31640625 26.69921875 C-1.35451416 25.81838623 -1.39262207 24.93755371 -1.43188477 24.0300293 C-1.47498779 22.92699463 -1.51809082 21.82395996 -1.5625 20.6875 C-1.706875 17.160625 -1.85125 13.63375 -2 10 C-2.33 18.91 -2.66 27.82 -3 37 C-3.33 37 -3.66 37 -4 37 C-4 26.77 -4 16.54 -4 6 C-3.01 6 -2.02 6 -1 6 C-0.67 4.02 -0.34 2.04 0 0 Z " fill="#E4FCF3" transform="translate(186,28)"/>
<path d="M0 0 C1.98 0 3.96 0 6 0 C6 3.96 6 7.92 6 12 C4.02 12.66 2.04 13.32 0 14 C-1.10370043 10.6888987 -0.92673641 8.75251051 -0.5625 5.3125 C-0.46066406 4.31863281 -0.35882813 3.32476562 -0.25390625 2.30078125 C-0.17011719 1.54152344 -0.08632812 0.78226563 0 0 Z " fill="#72D6AB" transform="translate(83,51)"/>
<path d="M0 0 C2.31 0 4.62 0 7 0 C7 3.63 7 7.26 7 11 C6.67 11 6.34 11 6 11 C5.67 7.7 5.34 4.4 5 1 C3.68 1 2.36 1 1 1 C1 7.93 1 14.86 1 22 C1.99 22 2.98 22 4 22 C4.66 20.35 5.32 18.7 6 17 C7.98 17 9.96 17 12 17 C12 21.29 12 25.58 12 30 C11.67 30 11.34 30 11 30 C11 26.04 11 22.08 11 18 C9.68 18 8.36 18 7 18 C7 19.98 7 21.96 7 24 C4.36 24 1.72 24 -1 24 C-1.02909763 20.75001888 -1.04683161 17.50007143 -1.0625 14.25 C-1.07087891 13.32960938 -1.07925781 12.40921875 -1.08789062 11.4609375 C-1.09111328 10.57148437 -1.09433594 9.68203125 -1.09765625 8.765625 C-1.10289307 7.94868164 -1.10812988 7.13173828 -1.11352539 6.29003906 C-1.00299021 4.06031865 -0.62055567 2.13866245 0 0 Z " fill="#D6F6EA" transform="translate(195,33)"/>
<path d="M0 0 C2.97 0 5.94 0 9 0 C9 2.97 9 5.94 9 9 C6.03 9 3.06 9 0 9 C0 6.03 0 3.06 0 0 Z " fill="#7DD4B1" transform="translate(173,22)"/>
<path d="M0 0 C1.32 0 2.64 0 4 0 C4 13.53 4 27.06 4 41 C6.31 41 8.62 41 11 41 C11 41.33 11 41.66 11 42 C8.36 42 5.72 42 3 42 C2.67 31.77 2.34 21.54 2 11 C1.34 11 0.68 11 0 11 C0 7.37 0 3.74 0 0 Z " fill="#D4F3E6" transform="translate(138,24)"/>
<path d="M0 0 C2.33294775 -0.04241723 4.66702567 -0.04092937 7 0 C8 1 8 1 8.09765625 3.06640625 C8.08605469 3.89011719 8.07445312 4.71382812 8.0625 5.5625 C8.05347656 6.38878906 8.04445313 7.21507812 8.03515625 8.06640625 C8.02355469 8.70449219 8.01195312 9.34257813 8 10 C5.36 10 2.72 10 0 10 C0 6.7 0 3.4 0 0 Z " fill="#DAF9EE" transform="translate(26,32)"/>
<path d="M0 0 C1.32 0 2.64 0 4 0 C4 4.29 4 8.58 4 13 C1.02958551 14.48520725 -1.69764447 14.1705822 -5 14.1875 C-6.8871875 14.20876953 -6.8871875 14.20876953 -8.8125 14.23046875 C-12 14 -12 14 -14 12 C-8.39 12 -2.78 12 3 12 C3 10.68 3 9.36 3 8 C2.29875 8.185625 1.5975 8.37125 0.875 8.5625 C-2.33888698 9.05156976 -4.83560336 8.66231558 -8 8 C-8 7.34 -8 6.68 -8 6 C-5.36 6 -2.72 6 0 6 C0 4.02 0 2.04 0 0 Z " fill="#87D3B2" transform="translate(202,51)"/>
<path d="M0 0 C1.32 0 2.64 0 4 0 C6.3992233 4.64849515 6.19957409 8.91086074 6 14 C4.02 14 2.04 14 0 14 C0 9.38 0 4.76 0 0 Z " fill="#D6F8EB" transform="translate(215,32)"/>
<path d="M0 0 C0.66 0.33 1.32 0.66 2 1 C2.02685095 3.47923801 2.04676547 5.9581884 2.0625 8.4375 C2.07087891 9.14455078 2.07925781 9.85160156 2.08789062 10.58007812 C2.09653588 12.38693559 2.05220011 14.19387603 2 16 C1 17 1 17 -1.65234375 17.09765625 C-2.73644531 17.08605469 -3.82054688 17.07445313 -4.9375 17.0625 C-6.01902344 17.05347656 -7.10054687 17.04445313 -8.21484375 17.03515625 C-9.13394531 17.02355469 -10.05304688 17.01195313 -11 17 C-11.66 17 -12.32 17 -13 17 C-13.99 16.67 -14.98 16.34 -16 16 C-15.34 15.67 -14.68 15.34 -14 15 C-13.52998967 11.72444392 -13.52998967 11.72444392 -13.375 7.9375 C-13.30023438 6.64714844 -13.22546875 5.35679688 -13.1484375 4.02734375 C-13.09945312 3.02832031 -13.05046875 2.02929688 -13 1 C-12.01 1.33 -11.02 1.66 -10 2 C-10 6.62 -10 11.24 -10 16 C-6.7 16 -3.4 16 0 16 C0 10.72 0 5.44 0 0 Z " fill="#E4FCF3" transform="translate(103,49)"/>
<path d="M0 0 C3.63 0 7.26 0 11 0 C11 3.3 11 6.6 11 10 C9.02 10 7.04 10 5 10 C5 7.69 5 5.38 5 3 C3.02 3 1.04 3 -1 3 C-0.67 2.01 -0.34 1.02 0 0 Z " fill="#E0FCF2" transform="translate(254,46)"/>
<path d="M0 0 C3.3 0 6.6 0 10 0 C10 0.66 10 1.32 10 2 C10.99 2.33 11.98 2.66 13 3 C12.84660156 3.86753906 12.69320312 4.73507813 12.53515625 5.62890625 C11.66917066 11.69080536 11.63300585 17.82553841 11.4375 23.9375 C11.39431641 25.19369141 11.35113281 26.44988281 11.30664062 27.74414062 C11.20106381 30.82932968 11.09895449 33.91459263 11 37 C10.67 37 10.34 37 10 37 C9.67 27.76 9.34 18.52 9 9 C8.01 9.495 8.01 9.495 7 10 C7.66 7.03 8.32 4.06 9 1 C6.03 1 3.06 1 0 1 C0 0.67 0 0.34 0 0 Z " fill="#EFFFFA" transform="translate(57,22)"/>
<path d="M0 0 C0.66 0 1.32 0 2 0 C2.33 3.3 2.66 6.6 3 10 C3.33 7.03 3.66 4.06 4 1 C4.33 1 4.66 1 5 1 C5.02893932 4.62498334 5.04677792 8.24993713 5.0625 11.875 C5.07087891 12.90753906 5.07925781 13.94007812 5.08789062 15.00390625 C5.09111328 15.99003906 5.09433594 16.97617187 5.09765625 17.9921875 C5.10289307 18.90339355 5.10812988 19.81459961 5.11352539 20.75341797 C5 23 5 23 4 25 C3.34 25 2.68 25 2 25 C1.34 16.75 0.68 8.5 0 0 Z " fill="#E9FCF7" transform="translate(227,23)"/>
<path d="M0 0 C1.06347656 0.00515625 2.12695312 0.0103125 3.22265625 0.015625 C4.28355469 0.01046875 5.34445312 0.0053125 6.4375 0 C9.28515625 0.265625 9.28515625 0.265625 12.28515625 2.265625 C12.578125 5.0859375 12.578125 5.0859375 12.47265625 8.390625 C12.44558594 9.48632812 12.41851562 10.58203125 12.390625 11.7109375 C12.35582031 12.55398437 12.32101562 13.39703125 12.28515625 14.265625 C9.97515625 14.265625 7.66515625 14.265625 5.28515625 14.265625 C5.61515625 13.275625 5.94515625 12.285625 6.28515625 11.265625 C7.27515625 11.595625 8.26515625 11.925625 9.28515625 12.265625 C10.56918708 7.7715171 10.1904076 7.02875338 8.28515625 2.265625 C3.99515625 2.265625 -0.29484375 2.265625 -4.71484375 2.265625 C-2.71484375 0.265625 -2.71484375 0.265625 0 0 Z " fill="#8FD3B7" transform="translate(258.71484375,22.734375)"/>
<path d="M0 0 C0.33 0 0.66 0 1 0 C1 5.61 1 11.22 1 17 C6.28 17 11.56 17 17 17 C16.67 16.01 16.34 15.02 16 14 C13.69 13.67 11.38 13.34 9 13 C9 12.34 9 11.68 9 11 C11.97 11 14.94 11 18 11 C18 13.31 18 15.62 18 18 C12.06 18 6.12 18 0 18 C0 12.06 0 6.12 0 0 Z " fill="#8BCFB4" transform="translate(233,47)"/>
<path d="M0 0 C1.27875 0.00257812 2.5575 0.00515625 3.875 0.0078125 C5.15375 0.00523438 6.4325 0.00265625 7.75 0 C10.875 0.1328125 10.875 0.1328125 11.875 1.1328125 C11.94705511 2.81890216 11.95886068 4.50781909 11.9375 6.1953125 C11.92847656 7.11441406 11.91945312 8.03351562 11.91015625 8.98046875 C11.89855469 9.69074219 11.88695312 10.40101562 11.875 11.1328125 C11.545 11.1328125 11.215 11.1328125 10.875 11.1328125 C10.875 8.4928125 10.875 5.8528125 10.875 3.1328125 C8.89590602 3.10594697 6.91671029 3.08647875 4.9375 3.0703125 C3.28427734 3.05291016 3.28427734 3.05291016 1.59765625 3.03515625 C-1.03947634 2.82018679 -1.03947634 2.82018679 -2.125 4.1328125 C-2.49260731 6.46099214 -2.82741581 8.794651 -3.125 11.1328125 C-3.785 11.1328125 -4.445 11.1328125 -5.125 11.1328125 C-4.98457123 9.48650922 -4.83750671 7.84077071 -4.6875 6.1953125 C-4.60628906 5.27878906 -4.52507812 4.36226562 -4.44140625 3.41796875 C-3.95335286 -0.10686132 -3.67822236 0.15632445 0 0 Z " fill="#96D6BC" transform="translate(216.125,22.8671875)"/>
<path d="M0 0 C0.66 0 1.32 0 2 0 C2.33708908 2.08272894 2.66953116 4.16621037 3 6.25 C3.185625 7.41015625 3.37125 8.5703125 3.5625 9.765625 C4 13 4 13 4 17 C2.68 16.67 1.36 16.34 0 16 C0 10.72 0 5.44 0 0 Z " fill="#D5F7EB" transform="translate(148,41)"/>
<path d="M0 0 C1.32 0 2.64 0 4 0 C4 2.64 4 5.28 4 8 C2.68 8.33 1.36 8.66 0 9 C0.62648438 8.97679687 1.25296875 8.95359375 1.8984375 8.9296875 C2.71570313 8.91164063 3.53296875 8.89359375 4.375 8.875 C5.18710937 8.85179687 5.99921875 8.82859375 6.8359375 8.8046875 C9 9 9 9 11 11 C7.04 10.67 3.08 10.34 -1 10 C-1.09765625 3.06640625 -1.09765625 3.06640625 -1 1 C-0.67 0.67 -0.34 0.34 0 0 Z " fill="#DCF8ED" transform="translate(260,31)"/>
<path d="M0 0 C0.33 0 0.66 0 1 0 C1 5.28 1 10.56 1 16 C-2.3 16 -5.6 16 -9 16 C-9 13.03 -9 10.06 -9 7 C-8.67 7 -8.34 7 -8 7 C-8 9.64 -8 12.28 -8 15 C-6.35 14.67 -4.7 14.34 -3 14 C-2.01 9.38 -1.02 4.76 0 0 Z " fill="#7ECDAD" transform="translate(58,49)"/>
<path d="M0 0 C2.16874252 0.50603992 3.99967627 0.99983813 6 2 C5.91276622 3.77174819 5.80458345 5.54247377 5.6875 7.3125 C5.62949219 8.29863281 5.57148438 9.28476562 5.51171875 10.30078125 C4.95377187 13.24384457 4.31459868 14.18182999 2 16 C1.93941406 15.09636719 1.87882812 14.19273438 1.81640625 13.26171875 C1.73261719 12.08222656 1.64882813 10.90273438 1.5625 9.6875 C1.48128906 8.51574219 1.40007812 7.34398437 1.31640625 6.13671875 C1.1132629 2.97409042 1.1132629 2.97409042 0 0 Z " fill="#78D8B0" transform="translate(264,43)"/>
<path d="M0 0 C2.475 0.99 2.475 0.99 5 2 C3.68 2.33 2.36 2.66 1 3 C1 9.93 1 16.86 1 24 C-1.15028033 19.69943934 -1.2675322 16.65029193 -1.1875 12 C-1.18685547 11.2884375 -1.18621094 10.576875 -1.18554688 9.84375 C-1.1568988 6.43144624 -1.06157986 3.26117332 0 0 Z " fill="#85D0B1" transform="translate(76,28)"/>
<path d="M0 0 C0.33 1.32 0.66 2.64 1 4 C-1.31 4 -3.62 4 -6 4 C-6.33 11.92 -6.66 19.84 -7 28 C-7.33 28 -7.66 28 -8 28 C-8.02899599 24.22918278 -8.04679729 20.45839417 -8.0625 16.6875 C-8.07087891 15.61564453 -8.07925781 14.54378906 -8.08789062 13.43945312 C-8.09111328 12.41142578 -8.09433594 11.38339844 -8.09765625 10.32421875 C-8.10289307 9.37635498 -8.10812988 8.42849121 -8.11352539 7.4519043 C-8 5 -8 5 -7 2 C-3.4375 0.8125 -3.4375 0.8125 0 0 Z " fill="#86D1B1" transform="translate(201,29)"/>
<path d="M0 0 C2.97 0 5.94 0 9 0 C8.67 2.31 8.34 4.62 8 7 C7.67 7 7.34 7 7 7 C7 5.35 7 3.7 7 2 C5.35 2 3.7 2 2 2 C1.34 5.63 0.68 9.26 0 13 C-0.33 13 -0.66 13 -1 13 C-0.67 8.71 -0.34 4.42 0 0 Z " fill="#89D1B4" transform="translate(57,23)"/>
<path d="M0 0 C2.97 0 5.94 0 9 0 C7 2 7 2 4.375 2.125 C3.59125 2.08375 2.8075 2.0425 2 2 C2 3.98 2 5.96 2 8 C5.3 8 8.6 8 12 8 C12 8.33 12 8.66 12 9 C8.04 9 4.08 9 0 9 C0 6.03 0 3.06 0 0 Z " fill="#DEFAEF" transform="translate(127,47)"/>
<path d="M0 0 C0.33 0 0.66 0 1 0 C1 5.94 1 11.88 1 18 C2.32 18 3.64 18 5 18 C5.33 16.02 5.66 14.04 6 12 C6.33 12 6.66 12 7 12 C7 14.64 7 17.28 7 20 C4.69 20 2.38 20 0 20 C0 13.4 0 6.8 0 0 Z " fill="#E2FDF5" transform="translate(103,23)"/>
<path d="M0 0 C0.33 0 0.66 0 1 0 C1.02685938 2.14576637 1.04633088 4.29162645 1.0625 6.4375 C1.07410156 7.63246094 1.08570313 8.82742187 1.09765625 10.05859375 C1 13 1 13 0 14 C-2.33297433 14.04092937 -4.66705225 14.04241723 -7 14 C-7 10.37 -7 6.74 -7 3 C-6.67 3 -6.34 3 -6 3 C-5.67 5.64 -5.34 8.28 -5 11 C-3.68 11.33 -2.36 11.66 -1 12 C-0.67 8.04 -0.34 4.08 0 0 Z " fill="#85CAAE" transform="translate(28,51)"/>
<path d="M0 0 C0.33 0.99 0.66 1.98 1 3 C-0.41519715 5.0343459 -1.54982123 5.90410393 -3.98046875 6.421875 C-5.98176954 6.66273952 -7.9909944 6.83532741 -10 7 C-10 11.29 -10 15.58 -10 20 C-10.66 19.67 -11.32 19.34 -12 19 C-11.67 14.38 -11.34 9.76 -11 5 C-9.1128125 4.5978125 -9.1128125 4.5978125 -7.1875 4.1875 C-4.00551199 3.40467463 -1.99755689 2.74664072 0 0 Z " fill="#D6F9EC" transform="translate(40,45)"/>
<path d="M0 0 C0.99 0 1.98 0 3 0 C3.33 2.31 3.66 4.62 4 7 C5.98 7 7.96 7 10 7 C10.33 6.01 10.66 5.02 11 4 C11 5.32 11 6.64 11 8 C7.37 8 3.74 8 0 8 C0 5.36 0 2.72 0 0 Z " fill="#E7FDF5" transform="translate(149,58)"/>
<path d="M0 0 C1.32 0 2.64 0 4 0 C6 3 6 3 6 7 C4.02 7 2.04 7 0 7 C0 4.69 0 2.38 0 0 Z " fill="#FAFEFC" transform="translate(27,33)"/>
<path d="M0 0 C2.7865517 2.7865517 2.65662895 5.15424427 3 9 C2.67 9.66 2.34 10.32 2 11 C0.68 11 -0.64 11 -2 11 C-2 9.35 -2 7.7 -2 6 C-1.34 6 -0.68 6 0 6 C0 4.02 0 2.04 0 0 Z " fill="#7AD6AF" transform="translate(211,53)"/>
<path d="M0 0 C0.99 0 1.98 0 3 0 C4.4783226 2.95664519 4.06032783 5.74229737 4 9 C2.68 9 1.36 9 0 9 C0 6.03 0 3.06 0 0 Z " fill="#F7FEFC" transform="translate(260,47)"/>
<path d="M0 0 C0.66 0 1.32 0 2 0 C2.33 4.95 2.66 9.9 3 15 C2.01 15.33 1.02 15.66 0 16 C0 10.72 0 5.44 0 0 Z " fill="#DAFAEE" transform="translate(251,49)"/>
<path d="M0 0 C3.3 0 6.6 0 10 0 C10 0.66 10 1.32 10 2 C10.99 2.33 11.98 2.66 13 3 C12.67 5.31 12.34 7.62 12 10 C11.34 8.68 10.68 7.36 10 6 C9.34 7.32 8.68 8.64 8 10 C6.39968656 6.79937313 7.96826309 4.27728194 9 1 C6.03 1 3.06 1 0 1 C0 0.67 0 0.34 0 0 Z " fill="#D9F9EC" transform="translate(57,22)"/>
<path d="M0 0 C1.32 0 2.64 0 4 0 C4 5.28 4 10.56 4 16 C3.67 16 3.34 16 3 16 C2.67 11.71 2.34 7.42 2 3 C1.01 3 0.02 3 -1 3 C-0.67 2.01 -0.34 1.02 0 0 Z " fill="#EBFFFC" transform="translate(105,49)"/>
<path d="M0 0 C1.88391785 3.26545761 2.49287967 6.28111761 3 10 C2.34 10 1.68 10 1 10 C1 12.97 1 15.94 1 19 C0.67 19 0.34 19 0 19 C-0.19425873 16.20865148 -0.38069517 13.41716313 -0.5625 10.625 C-0.61857422 9.8309375 -0.67464844 9.036875 -0.73242188 8.21875 C-1.11328125 2.2265625 -1.11328125 2.2265625 0 0 Z " fill="#C8F5E2" transform="translate(41,23)"/>
<path d="M0 0 C3.3 0 6.6 0 10 0 C10 1.65 10 3.3 10 5 C7.03 5 4.06 5 1 5 C1 4.67 1 4.34 1 4 C2.4540625 3.814375 2.4540625 3.814375 3.9375 3.625 C5.4534375 3.315625 5.4534375 3.315625 7 3 C7.33 2.34 7.66 1.68 8 1 C5.36 1.33 2.72 1.66 0 2 C0 1.34 0 0.68 0 0 Z " fill="#8AD2B5" transform="translate(126,42)"/>
<path d="M0 0 C0.66 0.33 1.32 0.66 2 1 C2 3.97 2 6.94 2 10 C1.01 10 0.02 10 -1 10 C-1.02689216 8.52093108 -1.04634621 7.04172517 -1.0625 5.5625 C-1.07410156 4.73878906 -1.08570313 3.91507813 -1.09765625 3.06640625 C-1 1 -1 1 0 0 Z " fill="#F9FEFB" transform="translate(217,35)"/>
<path d="M0 0 C2.97 0 5.94 0 9 0 C9 0.33 9 0.66 9 1 C6.36 1 3.72 1 1 1 C1.66 2.98 2.32 4.96 3 7 C5.97 7.495 5.97 7.495 9 8 C9 8.33 9 8.66 9 9 C6.03 9 3.06 9 0 9 C0 6.03 0 3.06 0 0 Z " fill="#A5DBC4" transform="translate(173,22)"/>
<path d="M0 0 C2.97 0 5.94 0 9 0 C9 2.31 9 4.62 9 7 C8.7215625 6.0409375 8.7215625 6.0409375 8.4375 5.0625 C7.05753944 2.57873787 7.05753944 2.57873787 3.375 2.25 C2.26125 2.1675 1.1475 2.085 0 2 C0 1.34 0 0.68 0 0 Z " fill="#A2DCC3" transform="translate(242,58)"/>
<path d="M0 0 C0.33 1.32 0.66 2.64 1 4 C-1.31 4 -3.62 4 -6 4 C-6.33 5.32 -6.66 6.64 -7 8 C-7 6.02 -7 4.04 -7 2 C-4.69 1.34 -2.38 0.68 0 0 Z " fill="#94D8BA" transform="translate(201,29)"/>
<path d="M0 0 C0.33 0 0.66 0 1 0 C1.10251672 5.12583611 1.03590199 9.94997778 0 15 C-0.33 15 -0.66 15 -1 15 C-1.33 11.7 -1.66 8.4 -2 5 C-1.34 5 -0.68 5 0 5 C0 3.35 0 1.7 0 0 Z " fill="#D3FAEC" transform="translate(155,27)"/>
<path d="M0 0 C1.98 0 3.96 0 6 0 C6 2.31 6 4.62 6 7 C5.67 7 5.34 7 5 7 C5 5.02 5 3.04 5 1 C4.34 1 3.68 1 3 1 C3 1.99 3 2.98 3 4 C2.01 4 1.02 4 0 4 C0 2.68 0 1.36 0 0 Z " fill="#92D2B6" transform="translate(253,49)"/>
<path d="M0 0 C2.64 0 5.28 0 8 0 C8.33 0.99 8.66 1.98 9 3 C6.03 2.67 3.06 2.34 0 2 C0 1.34 0 0.68 0 0 Z " fill="#90D8B9" transform="translate(194,57)"/>
<path d="M0 0 C2.64 0 5.28 0 8 0 C6.75 1.5 6.75 1.5 5 3 C3.68 3 2.36 3 1 3 C0.67 2.01 0.34 1.02 0 0 Z " fill="#E9FEF8" transform="translate(21,65)"/>
</svg>
